<mxfile host="app.diagrams.net" modified="2023-07-12T04:43:14.027Z" agent="Mozilla/5.0 (Windows NT 10.0; Win64; x64) AppleWebKit/537.36 (KHTML, like Gecko) Chrome/114.0.0.0 Whale/3.21.192.18 Safari/537.36" version="21.6.2" etag="HTQ_xcKhbwjf86lmkMmV" type="github">
  <diagram name="페이지-1" id="B-3s3E9DZeeVg6kDmshb">
    <mxGraphModel>
      <root>
        <mxCell id="0" />
        <mxCell id="1" parent="0" />
      </root>
    </mxGraphModel>
  </diagram>
</mxfile>
